<?xml version="1.0" encoding="UTF-8"?>
<svg xmlns="http://www.w3.org/2000/svg" viewBox="0 0 400 400" width="400" height="400" role="img" aria-label="Castra Labs">
  <title>Castra Labs — shield · color on navy</title>
  <rect width="400" height="400" fill="#1E2A44"></rect>
  <g>
    <rect x="48" y="48" width="64" height="64" rx="3" fill="#3A6EA5"></rect>
    <rect x="120" y="48" width="64" height="64" rx="3" fill="#F4F5F7"></rect>
    <rect x="192" y="48" width="64" height="64" rx="3" fill="#F4F5F7"></rect>
    <rect x="264" y="48" width="64" height="64" rx="3" fill="#3A6EA5"></rect>
    <rect x="48" y="120" width="64" height="64" rx="3" fill="#F4F5F7"></rect>
    <rect x="120" y="120" width="64" height="64" rx="3" fill="#F4F5F7"></rect>
    <rect x="192" y="120" width="64" height="64" rx="3" fill="#F4F5F7"></rect>
    <rect x="264" y="120" width="64" height="64" rx="3" fill="#F4F5F7"></rect>
    <rect x="48" y="192" width="64" height="64" rx="3" fill="#F4F5F7"></rect>
    <rect x="120" y="192" width="64" height="64" rx="3" fill="#F4F5F7"></rect>
    <rect x="192" y="192" width="64" height="64" rx="3" fill="#F4F5F7"></rect>
    <rect x="264" y="192" width="64" height="64" rx="3" fill="#F4F5F7"></rect>
    <rect x="120" y="264" width="64" height="64" rx="3" fill="#F4F5F7"></rect>
    <rect x="192" y="264" width="64" height="64" rx="3" fill="#F4F5F7"></rect>
  </g>
</svg>